<svg id="Layer_1" data-name="Layer 1" xmlns="http://www.w3.org/2000/svg" viewBox="0 0 500 500"><defs><style>.cls-1{fill:#313131;}.cls-2{fill:#96dbb3;}</style></defs><path class="cls-1" d="M42.6,415.76a22.36,22.36,0,0,1-8.71-8.35,24.45,24.45,0,0,1,0-24.06A22.53,22.53,0,0,1,42.67,375a25.55,25.55,0,0,1,12.45-3,25.94,25.94,0,0,1,10.2,1.95,21,21,0,0,1,7.81,5.66l-5.47,5.14a15.88,15.88,0,0,0-12.15-5.33,17.11,17.11,0,0,0-8.39,2,14.78,14.78,0,0,0-5.78,5.69,17.42,17.42,0,0,0,0,16.51,14.64,14.64,0,0,0,5.78,5.69,17,17,0,0,0,8.39,2.05A15.84,15.84,0,0,0,67.66,406l5.47,5.2a20.81,20.81,0,0,1-7.84,5.65,26.21,26.21,0,0,1-10.24,1.95A25.71,25.71,0,0,1,42.6,415.76Z"/><path class="cls-1" d="M109.79,407.6H87l-4.49,10.53H73.84l20.48-45.51h8.32l20.54,45.51h-8.84ZM107,401l-8.59-19.89L89.9,401Z"/><path class="cls-1" d="M129,372.62h19.89a28.64,28.64,0,0,1,12.94,2.83,21,21,0,0,1,8.78,8,24.37,24.37,0,0,1,0,23.86,21,21,0,0,1-8.78,8,28.51,28.51,0,0,1-12.94,2.83H129ZM148.47,411a19.28,19.28,0,0,0,8.81-1.92,13.56,13.56,0,0,0,5.85-5.46,17.53,17.53,0,0,0,0-16.45,13.68,13.68,0,0,0-5.85-5.46,19.4,19.4,0,0,0-8.81-1.91H137.42V411Z"/><path class="cls-1" d="M198.66,416.73a18.26,18.26,0,0,1-7-4.45l1.49-2.47a17.56,17.56,0,0,0,6.47,4.13,23.26,23.26,0,0,0,8.55,1.59q6.49,0,9.81-2.47a7.65,7.65,0,0,0,3.32-6.43,6.73,6.73,0,0,0-1.75-4.88,11.79,11.79,0,0,0-4.36-2.8,59.51,59.51,0,0,0-7-2,67.27,67.27,0,0,1-8-2.41,12.77,12.77,0,0,1-5.14-3.61,9.6,9.6,0,0,1-2.11-6.53,11.14,11.14,0,0,1,1.76-6.08,11.94,11.94,0,0,1,5.36-4.39,22,22,0,0,1,9-1.62,25.53,25.53,0,0,1,7.41,1.1,21.84,21.84,0,0,1,6.31,3l-1.23,2.66a21.12,21.12,0,0,0-6-2.86,22.62,22.62,0,0,0-6.47-1q-6.3,0-9.55,2.53a8,8,0,0,0-3.25,6.57,6.72,6.72,0,0,0,1.75,4.87,11.5,11.5,0,0,0,4.36,2.8,66.51,66.51,0,0,0,7.08,2.08,65.67,65.67,0,0,1,8,2.4,13.21,13.21,0,0,1,5.1,3.55,9.26,9.26,0,0,1,2.12,6.4,10.83,10.83,0,0,1-1.79,6.05,12.14,12.14,0,0,1-5.5,4.35,22.51,22.51,0,0,1-9.1,1.63A26.48,26.48,0,0,1,198.66,416.73Z"/><path class="cls-1" d="M246.86,400,238,408.06v10.07h-3.25V369.89H238V404l21.72-19.82h4.16l-14.63,13.71,16.06,20.22h-4Z"/><path class="cls-1" d="M300.3,401.94H271.11a14.2,14.2,0,0,0,2,7.06,12.89,12.89,0,0,0,5.1,4.78,16.3,16.3,0,0,0,13.39.48,12,12,0,0,0,4.72-3.54l1.88,2.15a14.43,14.43,0,0,1-5.56,4.09,19.35,19.35,0,0,1-16.28-.78,16,16,0,0,1-6.21-6.11,17.5,17.5,0,0,1-2.24-8.91,18.42,18.42,0,0,1,2.11-8.87,15.58,15.58,0,0,1,5.82-6.14,16.84,16.84,0,0,1,16.61,0,15.46,15.46,0,0,1,5.78,6.08,18.25,18.25,0,0,1,2.12,8.84Zm-22.56-13.55a12.18,12.18,0,0,0-4.58,4.49,14.49,14.49,0,0,0-2,6.53h26a13.61,13.61,0,0,0-1.95-6.5,12.58,12.58,0,0,0-11.05-6.11A13.05,13.05,0,0,0,277.74,388.39Z"/><path class="cls-1" d="M327.28,416a8.08,8.08,0,0,1-3.09,1.78,11.89,11.89,0,0,1-3.87.62A9.13,9.13,0,0,1,313.5,416a9.26,9.26,0,0,1-2.41-6.79V387h-6.24V384.2h6.24v-7.41h3.25v7.41h10.8V387h-10.8v21.85a7.1,7.1,0,0,0,1.6,5,6.09,6.09,0,0,0,4.71,1.73,7.55,7.55,0,0,0,5.27-1.89Z"/><path class="cls-1" d="M339.7,416.18a15.82,15.82,0,0,1-6.11-6.14,19,19,0,0,1,0-17.81,15.63,15.63,0,0,1,6.11-6.12,17.84,17.84,0,0,1,8.84-2.17,17.11,17.11,0,0,1,7.44,1.59,13.44,13.44,0,0,1,5.43,4.65l-2.4,1.75a11.54,11.54,0,0,0-4.52-3.8,13.74,13.74,0,0,0-5.95-1.27,14.21,14.21,0,0,0-7.12,1.79,12.68,12.68,0,0,0-4.94,5,16.5,16.5,0,0,0,0,14.95,12.68,12.68,0,0,0,4.94,5,14.21,14.21,0,0,0,7.12,1.79,13.89,13.89,0,0,0,5.95-1.27,11.63,11.63,0,0,0,4.52-3.8l2.4,1.75A13.44,13.44,0,0,1,356,416.8a17.11,17.11,0,0,1-7.44,1.59A17.55,17.55,0,0,1,339.7,416.18Z"/><path class="cls-1" d="M397.23,387.64q3.7,3.71,3.71,10.66v19.83h-3.25V398.56q0-5.71-2.9-8.71t-8.09-3q-6,0-9.43,3.58t-3.44,9.62v18.07h-3.25V369.89h3.25v21.39a12.45,12.45,0,0,1,5.2-5.43,16.56,16.56,0,0,1,8.13-1.91Q393.52,383.94,397.23,387.64Z"/><path class="cls-1" d="M443.06,401.94H413.87a14.2,14.2,0,0,0,2,7.06,13,13,0,0,0,5.1,4.78,16.3,16.3,0,0,0,13.39.48,12,12,0,0,0,4.72-3.54l1.88,2.15a14.43,14.43,0,0,1-5.56,4.09,19.35,19.35,0,0,1-16.28-.78,16.06,16.06,0,0,1-6.21-6.11,17.6,17.6,0,0,1-2.24-8.91,18.42,18.42,0,0,1,2.11-8.87,15.58,15.58,0,0,1,5.82-6.14,16.84,16.84,0,0,1,16.61,0,15.55,15.55,0,0,1,5.79,6.08,18.36,18.36,0,0,1,2.11,8.84ZM420.5,388.39a12.18,12.18,0,0,0-4.58,4.49,14.49,14.49,0,0,0-2,6.53h26a13.61,13.61,0,0,0-1.95-6.5,12.58,12.58,0,0,0-11.05-6.11A13.05,13.05,0,0,0,420.5,388.39Z"/><path class="cls-1" d="M461.2,385.92a15.46,15.46,0,0,1,8.06-2v3.18l-.78-.06q-5.66,0-8.84,3.54t-3.19,9.85v17.68H453.2V384.2h3.12v7.41A11.75,11.75,0,0,1,461.2,385.92Z"/><path class="cls-2" d="M173.42,207.4a54.08,54.08,0,0,0,76.48,76.49L263.81,270a9.83,9.83,0,1,0-13.71-14.1l-.2.19L236,270a34.42,34.42,0,0,1-48.68-48.67l13.91-13.91a9.83,9.83,0,1,0-13.71-14.1c-.07.06-.13.13-.2.2Z"/><path class="cls-2" d="M176.58,81.22,161.84,96l85.9,85.9,30-30,.33-.34a19.6,19.6,0,0,1,27.38,28.05l-30,30,85.09,85.08,15.55-15.55V81.22ZM326.39,207.4l-13.91,13.91c-.06.07-.13.13-.2.2a9.83,9.83,0,0,1-13.7-14.11l13.9-13.9a34.42,34.42,0,0,0-48.67-48.68L249.9,158.73l-.19.2A9.84,9.84,0,1,1,236,144.82l13.9-13.9a54.08,54.08,0,0,1,76.49,76.48Z"/><rect class="cls-1" x="206.51" y="198.2" width="86.19" height="19" transform="translate(-73.76 237.33) rotate(-45)"/><path class="cls-1" d="M296.13,161.18c-3.71-3.71-8.22-5.22-10.07-3.38l-8.83,8.84,13.44,13.44,8.83-8.84C301.35,169.39,299.84,164.89,296.13,161.18Z"/><path class="cls-1" d="M208.53,235.33l-3,3-6,18.29a.91.91,0,0,0,1.16,1.15l18.28-6,3-3Z"/><path class="cls-2" d="M253.37,231.64l-2.62,2.63L334.52,318l-13.7,13.69H175.28A49.76,49.76,0,0,1,125.57,282V134.84L138.45,122,223,206.56l2.62-2.63-87.21-87.21-16.59,16.59V282a53.48,53.48,0,0,0,53.42,53.41H322.36L339.77,318Z"/></svg>