<svg id="Layer_1" data-name="Layer 1" xmlns="http://www.w3.org/2000/svg" viewBox="0 0 460 177"><defs><style>.cls-1{fill:#313131;}.cls-2{fill:#96dbb3;}</style></defs><path class="cls-1" d="M182.59,163.77a17.87,17.87,0,0,1-6.92-4.37l1.46-2.42a17.29,17.29,0,0,0,6.35,4.05,22.76,22.76,0,0,0,8.38,1.56q6.38,0,9.63-2.42a7.52,7.52,0,0,0,3.25-6.31,6.6,6.6,0,0,0-1.72-4.79,11.43,11.43,0,0,0-4.27-2.74,58.49,58.49,0,0,0-6.89-2A68.9,68.9,0,0,1,184,142a12.64,12.64,0,0,1-5-3.54,9.46,9.46,0,0,1-2.07-6.41,10.87,10.87,0,0,1,1.72-6,11.73,11.73,0,0,1,5.26-4.31,21.55,21.55,0,0,1,8.83-1.59,25,25,0,0,1,7.27,1.08,21.79,21.79,0,0,1,6.19,2.94l-1.22,2.61A20.49,20.49,0,0,0,199,124a22.2,22.2,0,0,0-6.35-1c-4.12,0-7.25.83-9.37,2.49a7.77,7.77,0,0,0-3.19,6.44,6.59,6.59,0,0,0,1.72,4.78,11.43,11.43,0,0,0,4.27,2.74,63.9,63.9,0,0,0,6.95,2,64.71,64.71,0,0,1,7.85,2.36,13,13,0,0,1,5,3.47,9.14,9.14,0,0,1,2.07,6.29,10.62,10.62,0,0,1-1.75,5.93,11.92,11.92,0,0,1-5.39,4.27,22.24,22.24,0,0,1-8.92,1.59A25.87,25.87,0,0,1,182.59,163.77Z"/><path class="cls-1" d="M229.86,147.35l-8.67,7.91v9.88H218V117.83h3.19v33.48l21.3-19.45h4.08l-14.35,13.45L248,165.14H244Z"/><path class="cls-1" d="M282.28,149.27H253.65a13.83,13.83,0,0,0,2,6.91,12.64,12.64,0,0,0,5,4.69,15,15,0,0,0,7.11,1.66,15.14,15.14,0,0,0,6-1.18,11.85,11.85,0,0,0,4.63-3.48l1.85,2.11a14.23,14.23,0,0,1-5.46,4,18.93,18.93,0,0,1-16-.76,15.79,15.79,0,0,1-6.09-6,17.3,17.3,0,0,1-2.2-8.74,18,18,0,0,1,2.08-8.7,15.33,15.33,0,0,1,5.7-6,16.47,16.47,0,0,1,16.29,0,15.17,15.17,0,0,1,5.68,6,17.92,17.92,0,0,1,2.07,8.67ZM260.15,136a11.85,11.85,0,0,0-4.49,4.4,14.3,14.3,0,0,0-1.95,6.41h25.51a13.37,13.37,0,0,0-1.92-6.38,12.34,12.34,0,0,0-10.84-6A12.75,12.75,0,0,0,260.15,136Z"/><path class="cls-1" d="M308.74,163a8.06,8.06,0,0,1-3,1.75,11.77,11.77,0,0,1-3.8.61,9,9,0,0,1-6.69-2.39,9.11,9.11,0,0,1-2.36-6.67V134.6h-6.12v-2.74h6.12v-7.27h3.19v7.27h10.58v2.74H296.05V156a7.07,7.07,0,0,0,1.56,4.95,6,6,0,0,0,4.62,1.69,7.43,7.43,0,0,0,5.17-1.85Z"/><path class="cls-1" d="M320.91,163.23a15.57,15.57,0,0,1-6-6,17.5,17.5,0,0,1-2.17-8.7,17.68,17.68,0,0,1,2.17-8.77,15.33,15.33,0,0,1,6-6,17.56,17.56,0,0,1,8.68-2.14,16.69,16.69,0,0,1,7.3,1.57,13.19,13.19,0,0,1,5.32,4.55l-2.36,1.73a11.34,11.34,0,0,0-4.43-3.73,13.52,13.52,0,0,0-5.83-1.25,13.93,13.93,0,0,0-7,1.76,12.44,12.44,0,0,0-4.84,4.94,16.14,16.14,0,0,0,0,14.66,12.37,12.37,0,0,0,4.84,4.94,13.93,13.93,0,0,0,7,1.76,13.52,13.52,0,0,0,5.83-1.25,11.26,11.26,0,0,0,4.43-3.73l2.36,1.73a13.29,13.29,0,0,1-5.32,4.56,16.82,16.82,0,0,1-7.3,1.56A17.37,17.37,0,0,1,320.91,163.23Z"/><path class="cls-1" d="M377.34,135.24q3.65,3.63,3.64,10.45v19.45h-3.19V146q0-5.61-2.84-8.54T367,134.47q-5.86,0-9.24,3.51t-3.38,9.44v17.72H351.2V117.83h3.19v21a12.27,12.27,0,0,1,5.1-5.33,16.17,16.17,0,0,1,8-1.88Q373.72,131.6,377.34,135.24Z"/><path class="cls-1" d="M422.29,149.27H393.66a13.94,13.94,0,0,0,2,6.91,12.57,12.57,0,0,0,5,4.69,15,15,0,0,0,7.11,1.66,15.18,15.18,0,0,0,6-1.18,11.75,11.75,0,0,0,4.62-3.48l1.85,2.11a14.12,14.12,0,0,1-5.45,4,18.93,18.93,0,0,1-16-.76,15.79,15.79,0,0,1-6.09-6,17.2,17.2,0,0,1-2.2-8.74,18.1,18.1,0,0,1,2.07-8.7,15.36,15.36,0,0,1,5.71-6,16.47,16.47,0,0,1,16.29,0,15.24,15.24,0,0,1,5.68,6,17.92,17.92,0,0,1,2.07,8.67ZM400.17,136a12,12,0,0,0-4.5,4.4,14.41,14.41,0,0,0-1.94,6.41h25.5a13.26,13.26,0,0,0-1.91-6.38,12.38,12.38,0,0,0-10.84-6A12.75,12.75,0,0,0,400.17,136Z"/><path class="cls-1" d="M440.08,133.55a15.14,15.14,0,0,1,7.91-2v3.13l-.77-.07c-3.69,0-6.59,1.16-8.67,3.48s-3.12,5.54-3.12,9.66v17.34h-3.19V131.86h3.06v7.27A11.49,11.49,0,0,1,440.08,133.55Z"/><path class="cls-1" d="M197.55,99.34a42.73,42.73,0,0,1-16.7-16,44.45,44.45,0,0,1-6-23.06,44.11,44.11,0,0,1,6.1-23.06,43.12,43.12,0,0,1,16.77-16,49.12,49.12,0,0,1,23.86-5.79,49.86,49.86,0,0,1,19.57,3.73A40,40,0,0,1,256.06,30l-10.47,9.84a30.53,30.53,0,0,0-23.3-10.22,32.68,32.68,0,0,0-16.08,3.93,28.35,28.35,0,0,0-11.09,10.9,31.34,31.34,0,0,0-4,15.83,31.32,31.32,0,0,0,4,15.83A28.35,28.35,0,0,0,206.21,87a32.68,32.68,0,0,0,16.08,3.93,30.34,30.34,0,0,0,23.3-10.35l10.47,10a39.86,39.86,0,0,1-15,10.85,50.25,50.25,0,0,1-19.62,3.73A49.16,49.16,0,0,1,197.55,99.34Z"/><path class="cls-1" d="M326.35,83.7H282.73l-8.6,20.19h-16.7l39.26-87.24h15.95L352,103.89H335.07ZM321,71,304.54,32.85,288.21,71Z"/><path class="cls-1" d="M363.11,16.65h38.13A54.74,54.74,0,0,1,426,22.07,40.21,40.21,0,0,1,442.87,37.4a43.37,43.37,0,0,1,6,22.87,43.37,43.37,0,0,1-6,22.87A40.21,40.21,0,0,1,426,98.47a54.74,54.74,0,0,1-24.8,5.42H363.11ZM400.5,90.18a37,37,0,0,0,16.88-3.68A26.32,26.32,0,0,0,428.6,76a30.87,30.87,0,0,0,3.92-15.76,30.87,30.87,0,0,0-3.92-15.76A26.32,26.32,0,0,0,417.38,34a37,37,0,0,0-16.88-3.68H379.31V90.18Z"/><path class="cls-2" d="M39.5,90.43A32.16,32.16,0,0,0,85,135.91l8.27-8.27a5.84,5.84,0,1,0-8.15-8.38l-.12.11-8.27,8.27A20.46,20.46,0,0,1,47.77,98.7L56,90.43a5.84,5.84,0,1,0-8.15-8.38l-.12.12Z"/><path class="cls-2" d="M41.38,15.41l-8.76,8.76L83.7,75.24l17.82-17.83a1.89,1.89,0,0,0,.2-.2A11.65,11.65,0,0,1,118,73.89L100.17,91.72l50.59,50.59,9.25-9.25V15.41Zm89.08,75-8.27,8.27-.12.12a5.85,5.85,0,1,1-8.15-8.39l8.27-8.26A20.46,20.46,0,0,0,93.25,53.23L85,61.49l-.12.12a5.84,5.84,0,1,1-8.15-8.38L85,45a32.16,32.16,0,0,1,45.48,45.47Z"/><rect class="cls-1" x="59.18" y="84.96" width="51.25" height="11.3" transform="translate(-39.24 86.5) rotate(-45)"/><path class="cls-1" d="M112.47,63c-2.21-2.21-4.89-3.11-6-2l-5.25,5.26,8,8,5.25-5.26C115.57,67.83,114.67,65.15,112.47,63Z"/><path class="cls-1" d="M60.38,107l-1.76,1.77-3.57,10.87a.55.55,0,0,0,.68.69l10.88-3.57L68.37,115Z"/><path class="cls-2" d="M87,104.85l-1.56,1.56,49.81,49.8-8.14,8.15H40.61A29.58,29.58,0,0,1,11.06,134.8V47.29l7.65-7.65L69,89.93l1.56-1.56L18.71,36.52,8.85,46.38V134.8a31.79,31.79,0,0,0,31.76,31.76h87.45l10.35-10.35Z"/></svg>