<svg id="Layer_1" data-name="Layer 1" xmlns="http://www.w3.org/2000/svg" viewBox="0 0 500 500"><defs><style>.cls-1{fill:#96dbb3;}.cls-2{fill:#fff;}</style></defs><path class="cls-1" d="M138.55,248.63A79.78,79.78,0,0,0,251.37,361.45l20.51-20.51a14.5,14.5,0,1,0-20.22-20.8l-.29.29-20.51,20.51a50.77,50.77,0,0,1-71.8-71.8l20.51-20.51a14.5,14.5,0,1,0-20.22-20.8,4,4,0,0,0-.29.29Z"/><path class="cls-1" d="M143.21,62.5,121.47,84.23,248.18,210.94l44.23-44.23.49-.49a28.91,28.91,0,0,1,40.39,41.37l-44.23,44.23,125.5,125.5,22.94-22.94V62.5Zm221,186.13-20.51,20.51-.29.29a14.51,14.51,0,1,1-20.23-20.8l20.52-20.51a50.77,50.77,0,0,0-71.8-71.8l-20.51,20.52-.29.29a14.51,14.51,0,0,1-20.22-20.81l20.51-20.51A79.78,79.78,0,0,1,364.19,248.63Z"/><rect class="cls-2" x="187.35" y="235.06" width="127.13" height="28.03" transform="translate(-102.63 250.38) rotate(-45)"/><path class="cls-2" d="M319.56,180.44c-5.48-5.47-12.12-7.7-14.85-5l-13,13,19.82,19.82,13-13C327.26,192.56,325,185.92,319.56,180.44Z"/><path class="cls-2" d="M190.35,289.83,186,294.21l-8.86,27a1.36,1.36,0,0,0,1.71,1.71l27-8.86,4.38-4.38Z"/><path class="cls-1" d="M256.49,284.39l-3.87,3.87L376.18,411.82,356,432H141.29A73.4,73.4,0,0,1,68,358.71V141.6l19-19L211.74,247.38l3.87-3.87L87,114.87,62.5,139.34V358.71a78.89,78.89,0,0,0,78.79,78.79h217l25.67-25.68Z"/></svg>