<svg id="Layer_1" data-name="Layer 1" xmlns="http://www.w3.org/2000/svg" viewBox="0 0 460 177"><defs><style>.cls-1{fill:#fff;}.cls-2{fill:#96dbb3;}</style></defs><path class="cls-1" d="M183.74,161.29a18.1,18.1,0,0,1-6.92-4.37l1.46-2.42a17.4,17.4,0,0,0,6.35,4,22.6,22.6,0,0,0,8.38,1.57q6.38,0,9.63-2.43a7.51,7.51,0,0,0,3.25-6.31,6.58,6.58,0,0,0-1.72-4.78,11.31,11.31,0,0,0-4.27-2.74,58.22,58.22,0,0,0-6.89-2,66.92,66.92,0,0,1-7.87-2.36,12.44,12.44,0,0,1-5-3.54,9.45,9.45,0,0,1-2.07-6.41,10.9,10.9,0,0,1,1.72-6,11.71,11.71,0,0,1,5.26-4.3,21.55,21.55,0,0,1,8.83-1.59,25,25,0,0,1,7.27,1.08,21.51,21.51,0,0,1,6.19,2.93l-1.22,2.62a20.51,20.51,0,0,0-5.89-2.81,22.15,22.15,0,0,0-6.35-1c-4.12,0-7.25.83-9.37,2.49a7.8,7.8,0,0,0-3.19,6.44,6.62,6.62,0,0,0,1.72,4.78,11.27,11.27,0,0,0,4.28,2.74,65.18,65.18,0,0,0,6.95,2,65.27,65.27,0,0,1,7.84,2.35,13,13,0,0,1,5,3.48,9.1,9.1,0,0,1,2.08,6.28,10.6,10.6,0,0,1-1.76,5.93,11.92,11.92,0,0,1-5.39,4.27,22.2,22.2,0,0,1-8.92,1.6A26.08,26.08,0,0,1,183.74,161.29Z"/><path class="cls-1" d="M231,144.87l-8.68,7.9v9.89h-3.18V115.35h3.18v33.47l21.3-19.45h4.08l-14.35,13.46,15.75,19.83h-4Z"/><path class="cls-1" d="M283.43,146.78H254.8a13.9,13.9,0,0,0,2,6.92,12.77,12.77,0,0,0,5,4.69,16.05,16.05,0,0,0,13.13.47,11.73,11.73,0,0,0,4.63-3.47l1.85,2.1a14.29,14.29,0,0,1-5.45,4,19,19,0,0,1-16-.77,15.72,15.72,0,0,1-6.09-6,17.26,17.26,0,0,1-2.2-8.73,18,18,0,0,1,2.08-8.71,15.24,15.24,0,0,1,5.7-6,16.5,16.5,0,0,1,16.29,0,15.26,15.26,0,0,1,5.68,6,17.92,17.92,0,0,1,2.07,8.67ZM261.3,133.49a11.78,11.78,0,0,0-4.49,4.4,14.25,14.25,0,0,0-1.95,6.4h25.51a13.33,13.33,0,0,0-1.92-6.37,12.38,12.38,0,0,0-4.52-4.4,12.6,12.6,0,0,0-6.32-1.6A12.78,12.78,0,0,0,261.3,133.49Z"/><path class="cls-1" d="M309.89,160.55a8.08,8.08,0,0,1-3,1.76,12,12,0,0,1-3.8.6,8.25,8.25,0,0,1-9.05-9V132.12h-6.12v-2.75H294V122.1h3.19v7.27h10.58v2.75H297.2v21.42a7,7,0,0,0,1.56,4.94,6,6,0,0,0,4.62,1.69,7.41,7.41,0,0,0,5.17-1.85Z"/><path class="cls-1" d="M322.07,160.74a15.5,15.5,0,0,1-6-6,18.67,18.67,0,0,1,0-17.47,15.38,15.38,0,0,1,6-6,17.52,17.52,0,0,1,8.67-2.13,16.79,16.79,0,0,1,7.3,1.56,13.13,13.13,0,0,1,5.32,4.56L341,137a11.34,11.34,0,0,0-4.43-3.73,13.51,13.51,0,0,0-5.83-1.24,13.86,13.86,0,0,0-7,1.75,12.46,12.46,0,0,0-4.85,4.94,16.25,16.25,0,0,0,0,14.67,12.46,12.46,0,0,0,4.85,4.94,13.86,13.86,0,0,0,7,1.75,13.51,13.51,0,0,0,5.83-1.24,11.34,11.34,0,0,0,4.43-3.73l2.36,1.72a13.13,13.13,0,0,1-5.32,4.56,16.79,16.79,0,0,1-7.3,1.56A17.22,17.22,0,0,1,322.07,160.74Z"/><path class="cls-1" d="M378.49,132.75q3.64,3.65,3.64,10.46v19.45h-3.19v-19.2c0-3.74-.95-6.58-2.84-8.54s-4.53-2.93-7.93-2.93q-5.88,0-9.25,3.5t-3.38,9.44v17.73h-3.19V115.35h3.19v21a12.24,12.24,0,0,1,5.1-5.32,16.17,16.17,0,0,1,8-1.88Q374.86,129.12,378.49,132.75Z"/><path class="cls-1" d="M423.44,146.78H394.82a13.9,13.9,0,0,0,2,6.92,12.64,12.64,0,0,0,5,4.69,16.05,16.05,0,0,0,13.13.47,11.73,11.73,0,0,0,4.63-3.47l1.84,2.1a14.14,14.14,0,0,1-5.45,4,19,19,0,0,1-16-.77,15.72,15.72,0,0,1-6.09-6,17.16,17.16,0,0,1-2.2-8.73,18.14,18.14,0,0,1,2.07-8.71,15.26,15.26,0,0,1,5.71-6,16.5,16.5,0,0,1,16.29,0,15.33,15.33,0,0,1,5.68,6,17.92,17.92,0,0,1,2.07,8.67Zm-22.12-13.29a11.87,11.87,0,0,0-4.5,4.4,14.37,14.37,0,0,0-1.94,6.4h25.5a13.22,13.22,0,0,0-1.91-6.37,12.41,12.41,0,0,0-10.84-6A12.76,12.76,0,0,0,401.32,133.49Z"/><path class="cls-1" d="M441.23,131.06a15.23,15.23,0,0,1,7.91-1.94v3.12l-.77-.06a11.1,11.1,0,0,0-8.67,3.47q-3.12,3.48-3.12,9.66v17.35h-3.19V129.37h3.06v7.27A11.58,11.58,0,0,1,441.23,131.06Z"/><path class="cls-1" d="M198.7,96.85a42.73,42.73,0,0,1-16.7-16,44.42,44.42,0,0,1-6-23.06,44.07,44.07,0,0,1,6.1-23.05,43.12,43.12,0,0,1,16.77-16,49,49,0,0,1,23.86-5.8,49.83,49.83,0,0,1,19.57,3.74A39.9,39.9,0,0,1,257.21,27.5l-10.47,9.85a30.53,30.53,0,0,0-23.3-10.22,32.78,32.78,0,0,0-16.08,3.92A28.37,28.37,0,0,0,196.27,42a31.3,31.3,0,0,0-4,15.82,31.32,31.32,0,0,0,4,15.83,28.31,28.31,0,0,0,11.09,10.91,32.78,32.78,0,0,0,16.08,3.92,30.33,30.33,0,0,0,23.3-10.34l10.47,10a39.84,39.84,0,0,1-15,10.84,50.26,50.26,0,0,1-19.62,3.74A49.08,49.08,0,0,1,198.7,96.85Z"/><path class="cls-1" d="M327.5,81.21H283.88l-8.6,20.19h-16.7l39.26-87.23h16l39.38,87.23H336.22ZM322.14,68.5,305.69,30.37,289.36,68.5Z"/><path class="cls-1" d="M364.26,14.17h38.13a54.61,54.61,0,0,1,24.8,5.42A40.08,40.08,0,0,1,444,34.92a43.31,43.31,0,0,1,6,22.86,43.32,43.32,0,0,1-6,22.87A40.08,40.08,0,0,1,427.19,96a54.61,54.61,0,0,1-24.8,5.42H364.26Zm37.39,73.52A37,37,0,0,0,418.53,84a26.32,26.32,0,0,0,11.22-10.47,30.91,30.91,0,0,0,3.92-15.77A30.9,30.9,0,0,0,429.75,42a26.32,26.32,0,0,0-11.22-10.47,37,37,0,0,0-16.88-3.67H380.46V87.69Z"/><path class="cls-2" d="M40.65,88a32.16,32.16,0,0,0,45.48,45.48l8.27-8.27a5.85,5.85,0,0,0-8.15-8.39l-.12.12-8.27,8.27A20.46,20.46,0,0,1,48.92,96.22L57.19,88A5.85,5.85,0,1,0,49,79.56l-.12.12Z"/><path class="cls-2" d="M42.53,12.92l-8.76,8.76L84.85,72.76l17.82-17.83.2-.2a11.65,11.65,0,0,1,16.28,16.68L101.32,89.23l50.59,50.59,9.25-9.25V12.92Zm89.08,75-8.27,8.27-.12.11A5.84,5.84,0,1,1,115.07,88l8.27-8.27A20.46,20.46,0,0,0,94.4,50.74L86.13,59l-.12.12a5.85,5.85,0,0,1-8.15-8.39l8.27-8.27A32.16,32.16,0,0,1,131.61,88Z"/><rect class="cls-1" x="60.33" y="82.48" width="51.25" height="11.3" transform="translate(-37.14 86.59) rotate(-45)"/><path class="cls-1" d="M113.62,60.46c-2.21-2.2-4.89-3.1-6-2l-5.25,5.25,8,8,5.25-5.25C116.72,65.35,115.82,62.67,113.62,60.46Z"/><path class="cls-1" d="M61.53,104.56l-1.76,1.76L56.2,117.19a.54.54,0,0,0,.69.69l10.87-3.57,1.76-1.76Z"/><path class="cls-2" d="M88.19,102.36l-1.56,1.56,49.81,49.81-8.14,8.14H41.76a29.58,29.58,0,0,1-29.55-29.55V44.81l7.65-7.66,50.3,50.29,1.56-1.56L19.86,34,10,43.89v88.43a31.8,31.8,0,0,0,31.76,31.76h87.45l10.35-10.35Z"/></svg>